Coordinates
version=1
nRows=26
nColumns=34
inDegrees=no

Units are S.I. units (second, meters, Newtons, ...)
If the header above contains a line with 'inDegrees', this indicates whether rotational values are in degrees (yes) or radians (no).

endheader
time	pelvis_tilt	pelvis_list	pelvis_rotation	pelvis_tx	pelvis_ty	pelvis_tz	hip_flexion_r	hip_adduction_r	hip_rotation_r	knee_angle_r	ankle_angle_r	subtalar_angle_r	mtp_angle_r	hip_flexion_l	hip_adduction_l	hip_rotation_l	knee_angle_l	ankle_angle_l	subtalar_angle_l	mtp_angle_l	lumbar_extension	lumbar_bending	lumbar_rotation	arm_flex_r	arm_add_r	arm_rot_r	elbow_flex_r	pro_sup_r	arm_flex_l	arm_add_l	arm_rot_l	elbow_flex_l	pro_sup_l
0	0.163975	-0.0190515	0.0501437	-0.206812	1.00243	-0.268167	0.309297	-0.00112114	-0.157625	0.197178	0.0662861	0.0369299	0	-0.523599	-0.0704872	-0.122669	0.33365	0.221261	0.30071	0	-0.344498	0.119563	-0.0976226	-0.10223	-0.19607	-0.170613	0.608029	1.71849	0.117382	-0.215143	0.0787096	1.12328	1.65763
0.01	0.166835	-0.0267039	0.0503694	-0.191522	1.0028	-0.266279	0.310798	0.00711877	-0.159952	0.229182	0.0565162	0.0379937	0	-0.523599	-0.0844547	-0.140374	0.360441	0.204902	0.319152	0	-0.344943	0.129922	-0.0949716	-0.10095	-0.196258	-0.169978	0.603559	1.71861	0.104081	-0.211694	0.0780406	1.11159	1.65513
0.02	0.171629	-0.0405506	0.0518971	-0.175651	1.00359	-0.264271	0.309193	0.0219228	-0.16535	0.2609	0.0464682	0.0382528	0	-0.523599	-0.105864	-0.159001	0.391028	0.174918	0.327752	0	-0.34634	0.147189	-0.0913964	-0.100627	-0.197324	-0.169863	0.59969	1.71979	0.089976	-0.207383	0.0774405	1.09819	1.6523
0.03	0.180066	-0.0609306	0.054414	-0.159622	1.00502	-0.262236	0.304287	0.043743	-0.172866	0.294344	0.037126	0.0364919	0	-0.523599	-0.135801	-0.181859	0.427425	0.129596	0.329471	0	-0.351483	0.172136	-0.0864086	-0.0996514	-0.199646	-0.170461	0.596249	1.72254	0.0761128	-0.201789	0.0771219	1.0816	1.64911
0.04	0.190111	-0.0832732	0.0564735	-0.143151	1.00677	-0.259961	0.295423	0.0688125	-0.179619	0.324663	0.0317339	0.0315231	0	-0.523599	-0.168209	-0.202547	0.468297	0.0809807	0.323783	0	-0.356446	0.198471	-0.0800415	-0.100866	-0.201826	-0.172971	0.594952	1.72704	0.0605238	-0.196214	0.0767246	1.06308	1.64642
0.05	0.201789	-0.100661	0.0579436	-0.126813	1.00917	-0.257584	0.280173	0.0902352	-0.182878	0.347553	0.0306501	0.0249744	0	-0.523599	-0.194304	-0.213205	0.509253	0.0346492	0.309315	0	-0.364035	0.218866	-0.0731858	-0.102677	-0.202725	-0.176749	0.595773	1.73224	0.0452323	-0.191775	0.0765129	1.04429	1.6446
0.06	0.217537	-0.118223	0.0606737	-0.110678	1.01238	-0.255194	0.257076	0.113306	-0.184297	0.365015	0.0323113	0.0160658	0	-0.523599	-0.220325	-0.216556	0.553216	-0.0193523	0.279868	0	-0.376237	0.23943	-0.0652901	-0.104971	-0.203193	-0.182309	0.598982	1.73848	0.031313	-0.18786	0.0772329	1.0232	1.64335
0.07	0.214002	-0.131935	0.0652409	-0.0959966	1.01392	-0.252907	0.252137	0.131615	-0.183884	0.373832	0.0352994	0.00423838	0	-0.485037	-0.251251	-0.222067	0.625843	-0.0722245	0.243456	0	-0.370392	0.256007	-0.0623761	-0.105535	-0.202712	-0.187421	0.602771	1.7462	0.0186716	-0.18502	0.0777162	1.00171	1.64305
0.08	0.206955	-0.14623	0.072178	-0.0818213	1.01509	-0.250712	0.24963	0.150301	-0.185436	0.37879	0.0401907	-0.00768568	0	-0.436543	-0.285984	-0.222014	0.703102	-0.127121	0.19818	0	-0.360845	0.273358	-0.0615985	-0.10596	-0.202315	-0.191201	0.608127	1.75136	0.00669907	-0.183003	0.0784678	0.980024	1.64269
0.09	0.205166	-0.156822	0.0784571	-0.0678025	1.01713	-0.248436	0.237864	0.166617	-0.184124	0.37801	0.0460076	-0.0185738	0	-0.395664	-0.314148	-0.21501	0.770495	-0.187856	0.142661	0	-0.357731	0.286151	-0.0598103	-0.105561	-0.201476	-0.193642	0.614159	1.75375	-0.00380747	-0.182486	0.0802214	0.957995	1.64249
0.1	0.202715	-0.166727	0.0868432	-0.0541983	1.01906	-0.246328	0.225667	0.182059	-0.184244	0.373982	0.0521147	-0.0290784	0	-0.350715	-0.341834	-0.201623	0.836758	-0.246361	0.0823182	0	-0.353912	0.298346	-0.0595054	-0.104761	-0.200767	-0.194597	0.62094	1.75361	-0.0131493	-0.183106	0.0830092	0.936049	1.64315
0.11	0.200021	-0.175165	0.0967702	-0.0410134	1.02095	-0.244398	0.212973	0.195862	-0.184989	0.367514	0.0576955	-0.0398627	0	-0.303495	-0.366629	-0.18201	0.899443	-0.297324	0.021225	0	-0.349954	0.308996	-0.0603527	-0.103291	-0.200302	-0.193291	0.628451	1.74578	-0.0212335	-0.184763	0.0863006	0.913294	1.65158
0.12	0.198306	-0.181191	0.107127	-0.0281509	1.023	-0.242649	0.198628	0.206623	-0.18794	0.359912	0.0649649	-0.0455527	0	-0.25676	-0.386429	-0.158047	0.957277	-0.334396	-0.034127	0	-0.347394	0.31698	-0.0613852	-0.101084	-0.200118	-0.191	0.635165	1.74341	-0.0282086	-0.18745	0.0907828	0.892379	1.65292
0.13	0.196999	-0.184742	0.117194	-0.015576	1.02516	-0.241095	0.183292	0.214531	-0.191225	0.35144	0.0723718	-0.0491046	0	-0.210319	-0.400332	-0.130753	1.01059	-0.35446	-0.0827839	0	-0.345751	0.322159	-0.0621404	-0.0982057	-0.200523	-0.18694	0.641782	1.73884	-0.0343316	-0.190639	0.095211	0.871878	1.65758
0.14	0.193459	-0.187154	0.127198	-0.00331924	1.02704	-0.239855	0.170792	0.220126	-0.196734	0.343436	0.0807579	-0.0493491	0	-0.160271	-0.409817	-0.100149	1.06147	-0.355606	-0.123508	0	-0.341848	0.326104	-0.0631934	-0.0951182	-0.202041	-0.181358	0.648696	1.73309	-0.040214	-0.193621	0.0987731	0.852333	1.66521
0.15	0.196298	-0.183273	0.132854	0.00902686	1.03007	-0.23854	0.148171	0.220529	-0.197487	0.333213	0.0891969	-0.0460235	0	-0.123654	-0.408357	-0.0752333	1.10169	-0.340909	-0.150661	0	-0.346787	0.322517	-0.0600487	-0.0908609	-0.203633	-0.174625	0.654601	1.72814	-0.0453613	-0.197103	0.10146	0.834006	1.67273
0.16	0.198835	-0.177433	0.136544	0.0212582	1.03316	-0.237323	0.125085	0.218529	-0.197979	0.322554	0.0979166	-0.0399554	0	-0.0884079	-0.402064	-0.0523952	1.13716	-0.314767	-0.169041	0	-0.352106	0.316402	-0.0553671	-0.0864174	-0.205973	-0.167176	0.660627	1.72302	-0.0506697	-0.200279	0.102581	0.817134	1.68241
0.17	0.199624	-0.171119	0.138812	0.0333122	1.03608	-0.236109	0.103651	0.215598	-0.198526	0.311506	0.10634	-0.0325355	0	-0.0522885	-0.393539	-0.0320609	1.16828	-0.281869	-0.179202	0	-0.356002	0.3092	-0.0496219	-0.081873	-0.20891	-0.159457	0.666814	1.71848	-0.0564194	-0.203157	0.101874	0.802142	1.69361
0.18	0.19949	-0.164631	0.139412	0.0452546	1.03893	-0.234771	0.0823749	0.212642	-0.197404	0.298902	0.113435	-0.025754	0	-0.016668	-0.383677	-0.0155055	1.19428	-0.247728	-0.182683	0	-0.359389	0.301047	-0.0423524	-0.0771821	-0.212163	-0.151863	0.673038	1.71501	-0.062723	-0.205924	0.0994138	0.789236	1.70568
0.19	0.198135	-0.158175	0.138444	0.0571203	1.04159	-0.233262	0.0627189	0.209514	-0.195895	0.286809	0.120226	-0.0186447	0	0.0188838	-0.373144	-0.00299038	1.2153	-0.215997	-0.181902	0	-0.361786	0.292088	-0.0337736	-0.0724616	-0.215563	-0.144716	0.679374	1.71288	-0.0698288	-0.208746	0.0953214	0.778686	1.718
0.2	0.194009	-0.154193	0.13691	0.0689258	1.04371	-0.231672	0.045928	0.208979	-0.192946	0.273307	0.125659	-0.014141	0	0.0576218	-0.364927	0.00714565	1.23296	-0.188151	-0.179743	0	-0.360868	0.28517	-0.0244956	-0.0681762	-0.21958	-0.138171	0.686363	1.7122	-0.0782095	-0.211226	0.0895874	0.770689	1.73009
0.21	0.193505	-0.146342	0.131999	0.0807647	1.04643	-0.229768	0.0238903	0.20501	-0.186197	0.259284	0.130376	-0.00973632	0	0.0872797	-0.352403	0.00878674	1.24196	-0.164764	-0.174288	0	-0.365253	0.273145	-0.0125457	-0.0628499	-0.222932	-0.132236	0.692605	1.71239	-0.0865258	-0.214523	0.0831408	0.764431	1.74108
0.22	0.193798	-0.138235	0.125117	0.0926485	1.04911	-0.227687	0.000149765	0.201097	-0.175424	0.243938	0.133535	-0.00876326	0	0.11363	-0.33983	0.00513536	1.24545	-0.144165	-0.167183	0	-0.37082	0.260071	0.000978089	-0.057284	-0.226416	-0.126688	0.699113	1.71228	-0.0956238	-0.217725	0.0732849	0.757444	1.77168
0.23	0.19267	-0.131701	0.117496	0.104507	1.05135	-0.225528	-0.0214232	0.198235	-0.164858	0.229179	0.137224	-0.007029	0	0.140725	-0.329193	-0.00145879	1.24501	-0.125547	-0.160622	0	-0.374605	0.248242	0.0151639	-0.051957	-0.230328	-0.12198	0.706082	1.71362	-0.105474	-0.221303	0.0662669	0.756092	1.7726
0.24	0.191944	-0.126302	0.108205	0.116537	1.0533	-0.22326	-0.0433889	0.196299	-0.151989	0.214695	0.14077	-0.00658419	0	0.165129	-0.320613	-0.01258	1.23979	-0.106204	-0.151544	0	-0.378498	0.237024	0.0307929	-0.047	-0.234804	-0.117517	0.713645	1.71485	-0.116433	-0.224768	0.0584284	0.756283	1.77397
0.25	0.188019	-0.121429	0.100989	0.127899	1.05472	-0.221119	-0.06033	0.194402	-0.140119	0.200889	0.143122	-0.00908132	0	0.194603	-0.311721	-0.0220549	1.23161	-0.0880433	-0.142996	0	-0.379507	0.226687	0.0440289	-0.0405924	-0.239236	-0.113228	0.720611	1.71545	-0.126274	-0.228551	0.0508327	0.756786	1.77452
